<svg width="483" height="210" viewBox="0 0 483 210" fill="none" xmlns="http://www.w3.org/2000/svg">
<path d="M23.7033 21.1321H156.705V0H0V163.774L77.6942 210C104.909 194.591 156.705 163.774 156.705 163.774C156.705 163.774 155.827 86.2893 156.705 47.5472H133.002V151.887L77.6942 182.264L23.7033 151.887V108.302H82.7238L111.424 84.5283H23.7033V21.1321Z" fill="url(#paint0_linear_2039_59)"/>
<path d="M193.903 5.46121V74.1034H179.771V5.46121H193.903ZM221.224 34.785V45.8168H190.04V34.785H221.224ZM224.521 5.46121V16.5401H190.04V5.46121H224.521Z" fill="#1445B3"/>
<path d="M260.98 61.893V23.0932H274.546V74.1034H261.781L260.98 61.893ZM262.488 51.427L266.492 51.3327C266.492 54.7271 266.099 57.8858 265.314 60.8087C264.529 63.7003 263.351 66.2146 261.781 68.3518C260.211 70.4576 258.232 72.1077 255.846 73.302C253.459 74.4649 250.649 75.0463 247.414 75.0463C244.933 75.0463 242.641 74.7006 240.537 74.0092C238.464 73.2863 236.674 72.1705 235.167 70.6619C233.691 69.1219 232.529 67.1575 231.681 64.7689C230.864 62.3488 230.456 59.4415 230.456 56.0471V23.0932H244.022V56.1414C244.022 57.6501 244.195 58.923 244.541 59.9601C244.917 60.9973 245.436 61.8459 246.095 62.5059C246.755 63.1659 247.524 63.6374 248.403 63.9203C249.314 64.2031 250.319 64.3446 251.418 64.3446C254.213 64.3446 256.411 63.7788 258.013 62.6474C259.646 61.5159 260.792 59.9758 261.451 58.0272C262.142 56.0471 262.488 53.8471 262.488 51.427Z" fill="#1445B3"/>
<path d="M309.875 23.0932V32.7107H280.199V23.0932H309.875ZM287.547 10.5057H301.114V58.7344C301.114 60.2116 301.302 61.343 301.679 62.1288C302.087 62.9145 302.684 63.4645 303.469 63.7788C304.254 64.0617 305.243 64.2031 306.437 64.2031C307.284 64.2031 308.038 64.1717 308.698 64.1088C309.388 64.0145 309.969 63.9203 310.44 63.826L310.488 73.8206C309.326 74.1977 308.07 74.4963 306.719 74.7163C305.369 74.9363 303.877 75.0463 302.244 75.0463C299.261 75.0463 296.654 74.5592 294.425 73.5849C292.227 72.5791 290.531 70.9762 289.337 68.7761C288.144 66.5761 287.547 63.6845 287.547 60.1016V10.5057Z" fill="#1445B3"/>
<path d="M347.748 61.893V23.0932H361.314V74.1034H348.548L347.748 61.893ZM349.255 51.427L353.259 51.3327C353.259 54.7271 352.866 57.8858 352.081 60.8087C351.296 63.7003 350.119 66.2146 348.548 68.3518C346.978 70.4576 345 72.1077 342.613 73.302C340.226 74.4649 337.416 75.0463 334.181 75.0463C331.7 75.0463 329.408 74.7006 327.304 74.0092C325.231 73.2863 323.441 72.1705 321.934 70.6619C320.458 69.1219 319.296 67.1575 318.448 64.7689C317.632 62.3488 317.224 59.4415 317.224 56.0471V23.0932H330.79V56.1414C330.79 57.6501 330.963 58.923 331.308 59.9601C331.685 60.9973 332.203 61.8459 332.862 62.5059C333.522 63.1659 334.291 63.6374 335.171 63.9203C336.081 64.2031 337.086 64.3446 338.185 64.3446C340.98 64.3446 343.178 63.7788 344.78 62.6474C346.413 61.5159 347.559 59.9758 348.219 58.0272C348.909 56.0471 349.255 53.8471 349.255 51.427Z" fill="#1445B3"/>
<path d="M385.243 34.2193V74.1034H371.677V23.0932H384.442L385.243 34.2193ZM400.599 22.7632L400.364 35.3508C399.704 35.2565 398.904 35.1779 397.961 35.115C397.051 35.0207 396.219 34.9736 395.465 34.9736C393.549 34.9736 391.885 35.225 390.472 35.7279C389.09 36.1994 387.928 36.9065 386.986 37.8494C386.075 38.7923 385.384 39.9395 384.913 41.2909C384.474 42.6424 384.223 44.1825 384.16 45.9111L381.428 45.0625C381.428 41.7624 381.757 38.7294 382.417 35.9636C383.076 33.1664 384.034 30.7306 385.29 28.6562C386.578 26.5819 388.148 24.979 390.001 23.8475C391.854 22.7161 393.973 22.1503 396.36 22.1503C397.114 22.1503 397.883 22.2132 398.668 22.3389C399.453 22.4332 400.097 22.5746 400.599 22.7632Z" fill="#1445B3"/>
<path d="M429.522 75.0463C425.565 75.0463 422.016 74.4177 418.876 73.1606C415.736 71.8719 413.066 70.0962 410.868 67.8332C408.701 65.5703 407.037 62.9459 405.875 59.9601C404.713 56.9429 404.132 53.7371 404.132 50.3427V48.4569C404.132 44.5911 404.682 41.0552 405.781 37.8494C406.88 34.6436 408.45 31.8621 410.491 29.5048C412.564 27.1476 415.076 25.3404 418.028 24.0832C420.98 22.7946 424.309 22.1503 428.014 22.1503C431.626 22.1503 434.829 22.7475 437.624 23.9418C440.419 25.1361 442.758 26.8333 444.642 29.0334C446.558 31.2335 448.003 33.8736 448.976 36.9537C449.95 40.0023 450.436 43.3967 450.436 47.1369V52.7942H409.926V43.7425H437.106V42.7053C437.106 40.8195 436.76 39.138 436.069 37.6608C435.41 36.1522 434.405 34.9579 433.055 34.0779C431.704 33.1978 429.977 32.7578 427.873 32.7578C426.083 32.7578 424.544 33.1507 423.257 33.9364C421.969 34.7222 420.917 35.8222 420.101 37.2365C419.316 38.6509 418.719 40.3166 418.311 42.2338C417.934 44.1196 417.746 46.194 417.746 48.4569V50.3427C417.746 52.3856 418.028 54.2714 418.593 56C419.19 57.7286 420.022 59.2215 421.09 60.4787C422.189 61.7359 423.508 62.7102 425.047 63.4017C426.617 64.0931 428.391 64.4388 430.37 64.4388C432.819 64.4388 435.096 63.9674 437.2 63.0245C439.335 62.0502 441.172 60.5887 442.711 58.6401L449.306 65.806C448.238 67.3461 446.778 68.8233 444.925 70.2376C443.104 71.6519 440.905 72.8148 438.33 73.7263C435.755 74.6063 432.819 75.0463 429.522 75.0463Z" fill="#1445B3"/>
<path d="M218.84 144.796V154.724H187.765V144.796H218.84ZM191.877 92.9461V154.724H179.159V92.9461H191.877Z" fill="#0053BA"/>
<path d="M246.481 155.573C242.92 155.573 239.727 155.007 236.9 153.876C234.074 152.716 231.672 151.118 229.693 149.081C227.743 147.044 226.245 144.682 225.199 141.995C224.154 139.28 223.631 136.394 223.631 133.339V131.642C223.631 128.163 224.125 124.981 225.115 122.095C226.104 119.21 227.517 116.707 229.354 114.585C231.219 112.464 233.48 110.837 236.137 109.706C238.794 108.546 241.79 107.966 245.125 107.966C248.375 107.966 251.258 108.504 253.773 109.579C256.289 110.654 258.394 112.181 260.09 114.161C261.814 116.141 263.114 118.517 263.99 121.289C264.866 124.033 265.304 127.088 265.304 130.454V135.546H228.845V127.399H253.307V126.466C253.307 124.769 252.996 123.255 252.374 121.926C251.781 120.568 250.876 119.493 249.661 118.701C248.446 117.909 246.891 117.513 244.998 117.513C243.387 117.513 242.002 117.867 240.843 118.574C239.684 119.281 238.737 120.271 238.002 121.544C237.296 122.817 236.759 124.316 236.391 126.041C236.052 127.739 235.883 129.606 235.883 131.642V133.339C235.883 135.178 236.137 136.875 236.646 138.431C237.183 139.987 237.932 141.33 238.893 142.462C239.882 143.593 241.069 144.47 242.454 145.093C243.867 145.715 245.464 146.026 247.244 146.026C249.449 146.026 251.498 145.602 253.392 144.753C255.314 143.876 256.967 142.561 258.352 140.807L264.287 147.256C263.326 148.643 262.012 149.972 260.344 151.245C258.705 152.518 256.727 153.564 254.409 154.385C252.092 155.177 249.449 155.573 246.481 155.573Z" fill="#0053BA"/>
<path d="M297.016 144.371V123.92C297.016 122.449 296.775 121.19 296.295 120.144C295.814 119.069 295.065 118.234 294.048 117.64C293.059 117.046 291.773 116.749 290.19 116.749C288.833 116.749 287.66 116.99 286.671 117.471C285.682 117.923 284.919 118.588 284.382 119.465C283.845 120.313 283.576 121.318 283.576 122.477H271.367C271.367 120.526 271.819 118.673 272.724 116.919C273.628 115.165 274.942 113.624 276.666 112.294C278.39 110.936 280.439 109.876 282.813 109.112C285.216 108.348 287.901 107.966 290.868 107.966C294.429 107.966 297.595 108.56 300.365 109.748C303.134 110.936 305.311 112.718 306.893 115.095C308.504 117.471 309.31 120.441 309.31 124.005V143.65C309.31 146.167 309.465 148.232 309.776 149.845C310.087 151.429 310.539 152.815 311.133 154.003V154.724H298.796C298.203 153.48 297.75 151.924 297.439 150.057C297.157 148.162 297.016 146.266 297.016 144.371ZM298.627 126.763L298.711 133.679H291.886C290.275 133.679 288.876 133.863 287.689 134.23C286.502 134.598 285.527 135.121 284.764 135.8C284 136.451 283.435 137.215 283.068 138.092C282.729 138.968 282.559 139.93 282.559 140.977C282.559 142.023 282.799 142.971 283.28 143.82C283.76 144.64 284.453 145.291 285.357 145.771C286.261 146.224 287.321 146.45 288.537 146.45C290.374 146.45 291.971 146.083 293.327 145.347C294.684 144.612 295.73 143.706 296.464 142.632C297.228 141.557 297.623 140.538 297.651 139.577L300.873 144.753C300.421 145.913 299.799 147.115 299.008 148.36C298.245 149.604 297.27 150.778 296.083 151.881C294.896 152.956 293.469 153.847 291.801 154.554C290.134 155.233 288.155 155.573 285.866 155.573C282.955 155.573 280.312 154.993 277.938 153.833C275.592 152.645 273.727 151.019 272.342 148.954C270.985 146.86 270.307 144.484 270.307 141.825C270.307 139.421 270.759 137.285 271.664 135.419C272.568 133.552 273.896 131.982 275.649 130.709C277.429 129.408 279.648 128.432 282.305 127.781C284.961 127.102 288.042 126.763 291.547 126.763H298.627Z" fill="#0053BA"/>
<path d="M345.812 144.711V89.5517H358.106V154.724H347.041L345.812 144.711ZM316.814 132.321V131.43C316.814 127.923 317.209 124.74 318.001 121.883C318.792 118.998 319.951 116.523 321.477 114.458C323.003 112.393 324.883 110.795 327.116 109.664C329.348 108.532 331.892 107.966 334.747 107.966C337.432 107.966 339.777 108.532 341.784 109.664C343.819 110.795 345.543 112.407 346.956 114.501C348.398 116.565 349.556 119.012 350.433 121.841C351.309 124.641 351.945 127.71 352.34 131.048V133C351.945 136.196 351.309 139.166 350.433 141.91C349.556 144.654 348.398 147.058 346.956 149.123C345.543 151.16 343.819 152.744 341.784 153.876C339.749 155.007 337.375 155.573 334.662 155.573C331.807 155.573 329.264 154.993 327.031 153.833C324.826 152.673 322.961 151.047 321.435 148.954C319.937 146.86 318.792 144.4 318.001 141.571C317.209 138.742 316.814 135.659 316.814 132.321ZM329.023 131.43V132.321C329.023 134.216 329.165 135.984 329.447 137.625C329.758 139.265 330.253 140.722 330.931 141.995C331.638 143.24 332.542 144.216 333.644 144.923C334.775 145.602 336.146 145.941 337.757 145.941C339.848 145.941 341.572 145.474 342.929 144.541C344.285 143.579 345.317 142.264 346.024 140.595C346.758 138.926 347.182 137.003 347.295 134.824V129.266C347.211 127.484 346.956 125.886 346.532 124.472C346.137 123.029 345.543 121.798 344.752 120.78C343.989 119.762 343.028 118.97 341.869 118.404C340.738 117.838 339.396 117.555 337.841 117.555C336.259 117.555 334.902 117.923 333.772 118.659C332.641 119.366 331.722 120.342 331.016 121.586C330.338 122.831 329.829 124.302 329.49 125.999C329.179 127.668 329.023 129.478 329.023 131.43Z" fill="#0053BA"/>
<path d="M388.757 155.573C385.196 155.573 382.002 155.007 379.176 153.876C376.35 152.716 373.947 151.118 371.969 149.081C370.019 147.044 368.521 144.682 367.475 141.995C366.429 139.28 365.907 136.394 365.907 133.339V131.642C365.907 128.163 366.401 124.981 367.39 122.095C368.38 119.21 369.793 116.707 371.63 114.585C373.495 112.464 375.756 110.837 378.413 109.706C381.07 108.546 384.065 107.966 387.401 107.966C390.651 107.966 393.534 108.504 396.049 109.579C398.564 110.654 400.67 112.181 402.366 114.161C404.09 116.141 405.39 118.517 406.266 121.289C407.142 124.033 407.58 127.088 407.58 130.454V135.546H371.121V127.399H395.583V126.466C395.583 124.769 395.272 123.255 394.65 121.926C394.056 120.568 393.152 119.493 391.937 118.701C390.721 117.909 389.167 117.513 387.273 117.513C385.662 117.513 384.277 117.867 383.119 118.574C381.96 119.281 381.013 120.271 380.278 121.544C379.572 122.817 379.035 124.316 378.667 126.041C378.328 127.739 378.159 129.606 378.159 131.642V133.339C378.159 135.178 378.413 136.875 378.922 138.431C379.459 139.987 380.208 141.33 381.169 142.462C382.158 143.593 383.345 144.47 384.73 145.093C386.143 145.715 387.74 146.026 389.52 146.026C391.725 146.026 393.774 145.602 395.667 144.753C397.589 143.876 399.243 142.561 400.628 140.807L406.563 147.256C405.602 148.643 404.288 149.972 402.62 151.245C400.981 152.518 399.002 153.564 396.685 154.385C394.367 155.177 391.725 155.573 388.757 155.573Z" fill="#0053BA"/>
<path d="M426.743 118.828V154.724H414.533V108.815H426.022L426.743 118.828ZM440.563 108.518L440.351 119.847C439.758 119.762 439.037 119.691 438.189 119.635C437.369 119.55 436.62 119.507 435.942 119.507C434.218 119.507 432.72 119.734 431.448 120.186C430.205 120.61 429.159 121.247 428.311 122.095C427.492 122.944 426.87 123.977 426.446 125.193C426.05 126.409 425.824 127.795 425.767 129.351L423.309 128.587C423.309 125.617 423.605 122.888 424.199 120.398C424.792 117.881 425.654 115.689 426.785 113.822C427.944 111.955 429.357 110.512 431.024 109.494C432.692 108.475 434.6 107.966 436.748 107.966C437.426 107.966 438.118 108.023 438.825 108.136C439.532 108.221 440.111 108.348 440.563 108.518Z" fill="#0053BA"/>
<path d="M471.13 142.038C471.13 141.161 470.875 140.369 470.366 139.662C469.858 138.954 468.911 138.304 467.526 137.71C466.169 137.087 464.205 136.522 461.633 136.013C459.316 135.503 457.154 134.867 455.147 134.103C453.168 133.311 451.444 132.364 449.975 131.26C448.533 130.157 447.403 128.856 446.583 127.357C445.764 125.829 445.354 124.09 445.354 122.138C445.354 120.214 445.764 118.404 446.583 116.707C447.431 115.01 448.632 113.511 450.187 112.209C451.769 110.88 453.691 109.847 455.952 109.112C458.242 108.348 460.814 107.966 463.668 107.966C467.653 107.966 471.073 108.603 473.928 109.876C476.81 111.149 479.015 112.902 480.541 115.137C482.096 117.343 482.873 119.861 482.873 122.69H470.663C470.663 121.501 470.409 120.441 469.9 119.507C469.42 118.546 468.657 117.796 467.611 117.258C466.593 116.693 465.265 116.41 463.626 116.41C462.269 116.41 461.096 116.65 460.107 117.131C459.118 117.584 458.355 118.206 457.818 118.998C457.309 119.762 457.055 120.61 457.055 121.544C457.055 122.251 457.196 122.888 457.479 123.453C457.789 123.991 458.284 124.486 458.962 124.938C459.641 125.391 460.517 125.815 461.591 126.211C462.693 126.579 464.05 126.918 465.661 127.23C468.967 127.908 471.921 128.799 474.521 129.903C477.121 130.978 479.185 132.448 480.711 134.315C482.237 136.154 483 138.572 483 141.571C483 143.607 482.548 145.474 481.643 147.172C480.739 148.869 479.439 150.354 477.743 151.627C476.047 152.871 474.012 153.847 471.638 154.554C469.292 155.233 466.65 155.573 463.711 155.573C459.443 155.573 455.825 154.809 452.858 153.282C449.918 151.754 447.685 149.816 446.159 147.469C444.661 145.093 443.912 142.66 443.912 140.171H455.486C455.543 141.84 455.966 143.183 456.758 144.202C457.577 145.22 458.609 145.955 459.853 146.408C461.124 146.86 462.495 147.087 463.965 147.087C465.548 147.087 466.862 146.875 467.908 146.45C468.953 145.998 469.745 145.404 470.282 144.668C470.847 143.904 471.13 143.028 471.13 142.038Z" fill="#0053BA"/>
<path d="M176.319 200.534C176.319 199.629 176.629 198.872 177.251 198.264C177.887 197.656 178.728 197.352 179.774 197.352C180.819 197.352 181.653 197.656 182.275 198.264C182.911 198.872 183.229 199.629 183.229 200.534C183.229 201.439 182.911 202.196 182.275 202.804C181.653 203.412 180.819 203.716 179.774 203.716C178.728 203.716 177.887 203.412 177.251 202.804C176.629 202.196 176.319 201.439 176.319 200.534Z" fill="black"/>
<path d="M195.057 180.528V203.483H188.931V180.528H195.057ZM188.549 174.546C188.549 173.654 188.86 172.919 189.482 172.339C190.104 171.759 190.938 171.469 191.983 171.469C193.015 171.469 193.842 171.759 194.463 172.339C195.099 172.919 195.417 173.654 195.417 174.546C195.417 175.437 195.099 176.172 194.463 176.752C193.842 177.332 193.015 177.622 191.983 177.622C190.938 177.622 190.104 177.332 189.482 176.752C188.86 176.172 188.549 175.437 188.549 174.546Z" fill="black"/>
<path d="M213.647 198.476V170.897H219.794V203.483H214.262L213.647 198.476ZM199.148 192.281V191.836C199.148 190.082 199.346 188.491 199.741 187.062C200.137 185.62 200.717 184.382 201.48 183.35C202.243 182.317 203.182 181.518 204.299 180.952C205.415 180.387 206.687 180.104 208.114 180.104C209.457 180.104 210.63 180.387 211.633 180.952C212.651 181.518 213.513 182.324 214.219 183.371C214.94 184.403 215.519 185.627 215.957 187.041C216.395 188.441 216.713 189.976 216.911 191.645V192.621C216.713 194.219 216.395 195.704 215.957 197.076C215.519 198.448 214.94 199.65 214.219 200.682C213.513 201.701 212.651 202.493 211.633 203.058C210.616 203.624 209.429 203.907 208.072 203.907C206.645 203.907 205.373 203.617 204.256 203.037C203.154 202.457 202.222 201.644 201.458 200.598C200.709 199.551 200.137 198.32 199.741 196.906C199.346 195.492 199.148 193.95 199.148 192.281ZM205.253 191.836V192.281C205.253 193.229 205.323 194.113 205.465 194.933C205.62 195.753 205.867 196.482 206.207 197.118C206.56 197.741 207.012 198.229 207.563 198.582C208.129 198.922 208.814 199.091 209.619 199.091C210.665 199.091 211.527 198.858 212.205 198.391C212.884 197.91 213.4 197.253 213.753 196.418C214.12 195.584 214.332 194.622 214.389 193.533V190.754C214.346 189.863 214.219 189.064 214.007 188.356C213.809 187.635 213.513 187.02 213.117 186.511C212.735 186.002 212.255 185.606 211.676 185.323C211.11 185.04 210.439 184.898 209.662 184.898C208.87 184.898 208.192 185.082 207.627 185.45C207.062 185.804 206.602 186.292 206.249 186.914C205.91 187.536 205.655 188.272 205.486 189.12C205.33 189.955 205.253 190.86 205.253 191.836Z" fill="black"/>
<defs>
<linearGradient id="paint0_linear_2039_59" x1="-1.64326e-05" y1="162.453" x2="92.0406" y2="-125.112" gradientUnits="userSpaceOnUse">
<stop stop-color="#1445B3"/>
<stop offset="1" stop-color="#00243A"/>
</linearGradient>
</defs>
</svg>
